<svg version="1.1" width="2444.19" height="1663.59" xmlns="http://www.w3.org/2000/svg" xmlns:xlink="http://www.w3.org/1999/xlink" id="svg5526" overflow="hidden"><defs id="defs5530"><filter id="filter5386" color-interpolation-filters="sRGB" x="-0.15" y="-0.15" width="1.3" height="1.3" filterUnits="objectBoundingBox" primitiveUnits="userSpaceOnUse"><feGaussianBlur in="SourceGraphic" result="blur1" stdDeviation="3.37 12.4277"/><feTurbulence result="turbulence" numOctaves="5" baseFrequency="0.0287 0.0287" seed="4" type="fractalNoise" stitch="noStitch"/><feDisplacementMap in="blur1" in2="turbulence" result="map" scale="100" xChannelSelector="R" yChannelSelector="G"/><feGaussianBlur in="map" result="blur2" stdDeviation="1.73 1.73"/><feComposite in="blur2" in2="map" result="composite" operator="atop" k1="0" k2="0" k3="0" k4="0"/></filter></defs><g id="g5062" fill="#3D3D3D" fill-opacity="1" filter="url(#filter5386)" transform="matrix(3.77953,0,0,3.77953,719.217,391.396)"><path d=" M -213.937 80.9832 L -269.895 79.8527 L -296.895 30.8264 L -267.937 -17.0695 L -211.979 -15.939 L -184.979 33.0873 Z" id="path5039" stroke="none" stroke-width="1" stroke-linecap="round" stroke-linejoin="round" stroke-miterlimit="4" stroke-dasharray="" stroke-opacity="0.477387" fill="#3D3D3D" fill-rule="nonzero" fill-opacity="1" opacity="1" transform="matrix(-1,0,0,1,0,0)"/><path d=" M -210.401 285.815 L -324.654 285.815 L -381.781 186.868 L -324.654 87.922 L -210.401 87.9221 L -153.274 186.868 Z" id="path5051" stroke="none" stroke-width="1" stroke-linecap="round" stroke-linejoin="round" stroke-miterlimit="4" stroke-dasharray="" stroke-opacity="0.477387" fill="#3D3D3D" fill-rule="nonzero" fill-opacity="1" opacity="1" transform="matrix(-1,0,0,1,0,0)"/><path d=" M -203.098 85.2632 L -123.405 -52.7693 L 35.9814 -52.7693 L 115.674 85.2632 L 35.9814 223.296 L -123.405 223.296 Z" id="path5057" stroke="none" stroke-width="1" stroke-linecap="round" stroke-linejoin="round" stroke-miterlimit="4" stroke-dasharray="" stroke-opacity="0.477387" fill="#3D3D3D" fill-rule="nonzero" fill-opacity="1" opacity="1" transform="matrix(-1,0,0,1,0,0)"/></g></svg>